<svg xmlns="http://www.w3.org/2000/svg" width="45.268" height="38.25" viewBox="0 0 45.268 38.25">
  <g id="Group_273" data-name="Group 273" transform="translate(-1236.732 -631.75)">
    <rect id="Rectangle_95" data-name="Rectangle 95" width="45" height="7" transform="translate(1237 663)" fill="none"/>
    <g id="Group_272" data-name="Group 272" transform="translate(16 96)">
      <g id="Group_78" data-name="Group 78" transform="translate(1221 536)">
        <path id="Path_49" data-name="Path 49" d="M373.177,291.7a3.952,3.952,0,1,0,3.951,3.953A3.958,3.958,0,0,0,373.177,291.7Zm0,6.6a2.646,2.646,0,0,1-2.639-2.644v0a2.644,2.644,0,1,1,2.639,2.648Z" transform="translate(-365.271 -275.493)" fill="#030504" stroke="#000" stroke-width="0.5"/>
        <path id="Path_50" data-name="Path 50" d="M397.488,257.31a7.9,7.9,0,0,0-7.812,9.1l-13.98,7.3a7.905,7.905,0,1,0-13.743,7.811l6.113,10.212a.659.659,0,0,0,.56.32h.006a.659.659,0,0,0,.56-.312l6.276-10.111a7.861,7.861,0,0,0,.721-6.791l13.781-7.2a7.911,7.911,0,0,0,.73,1.627l6.113,10.212a.659.659,0,0,0,.56.32h.006a.659.659,0,0,0,.56-.312l6.276-10.111a7.908,7.908,0,0,0-6.725-12.064Zm-23.14,23.62-5.7,9.195-5.561-9.283a6.593,6.593,0,1,1,11.265.089Zm28.745-12.252-5.7,9.195-5.561-9.283a6.593,6.593,0,1,1,11.265.089Z" transform="translate(-360.836 -257.31)" fill="#030504" stroke="#000" stroke-width="0.5"/>
        <path id="Path_51" data-name="Path 51" d="M434.177,265.7a3.952,3.952,0,1,0,3.951,3.953A3.958,3.958,0,0,0,434.177,265.7Zm0,6.6a2.646,2.646,0,0,1-2.639-2.644v0a2.644,2.644,0,1,1,2.639,2.648Z" transform="translate(-397.526 -261.745)" fill="#030504" stroke="#000" stroke-width="0.5"/>
      </g>
    </g>
  </g>
</svg>
