<svg xmlns="http://www.w3.org/2000/svg" width="25.04" height="26.709" viewBox="0 0 25.04 26.709">
  <g id="download" transform="translate(-16)">
    <g id="Group_220" data-name="Group 220" transform="translate(21.842)">
      <g id="Group_219" data-name="Group 219" transform="translate(0)">
        <path id="Path_98" data-name="Path 98" d="M141.277,12.174a.833.833,0,0,0-.76-.489h-3.339V.835A.835.835,0,0,0,136.345,0h-3.339a.835.835,0,0,0-.835.835v10.85h-3.339a.834.834,0,0,0-.628,1.384l5.843,6.677a.833.833,0,0,0,1.255,0l5.843-6.677A.832.832,0,0,0,141.277,12.174Z" transform="translate(-127.998)" fill="#797e8d"/>
      </g>
    </g>
    <g id="Group_222" data-name="Group 222" transform="translate(16 18.362)">
      <g id="Group_221" data-name="Group 221" transform="translate(0)">
        <path id="Path_99" data-name="Path 99" d="M37.7,352v5.008H19.339V352H16v6.677a1.669,1.669,0,0,0,1.669,1.669h21.7a1.668,1.668,0,0,0,1.669-1.669V352Z" transform="translate(-16 -352)" fill="#797e8d"/>
      </g>
    </g>
  </g>
</svg>
