<svg xmlns="http://www.w3.org/2000/svg" viewBox="0 0 11.9 39.95"><defs><style>.cls-1{fill:none;}.cls-2{fill:#797e8d;}</style></defs><title>men</title><g id="Layer_2" data-name="Layer 2"><g id="Layer_2-2" data-name="Layer 2"><rect class="cls-1" x="1.88" y="31.95" width="8" height="8"/><path class="cls-2" d="M5.88,5.46a2.55,2.55,0,0,0,1.93-.8h0a2.63,2.63,0,0,0,.8-2A2.58,2.58,0,0,0,7.81.8,2.63,2.63,0,0,0,5.88,0,2.66,2.66,0,0,0,4,.8a2.64,2.64,0,0,0-.8,1.93A2.66,2.66,0,0,0,4,4.66,2.66,2.66,0,0,0,5.88,5.46Z"/><path class="cls-2" d="M11.89,9.32a2.41,2.41,0,0,0-.86-2,3.72,3.72,0,0,0-2.41-.71H3.35a4.18,4.18,0,0,0-2.41.64,2.24,2.24,0,0,0-.93,2V17.8a.87.87,0,0,0,.51.84,1,1,0,0,0,1,0A.89.89,0,0,0,2,17.8V9.9h.65V30.59a1.17,1.17,0,0,0,1,1.34,1.22,1.22,0,0,0,.33,0,1.19,1.19,0,0,0,1.32-1,1.82,1.82,0,0,0,0-.33V18.45H6.63V30.59a1.17,1.17,0,0,0,1,1.34,1.22,1.22,0,0,0,.33,0,1.18,1.18,0,0,0,1.32-1,.91.91,0,0,0,0-.33V9.9H9.9v7.45a1.15,1.15,0,0,0,.48,1,.84.84,0,0,0,1,0,1.12,1.12,0,0,0,.52-1h0Z"/></g></g></svg>