<svg xmlns="http://www.w3.org/2000/svg" viewBox="0 0 15.76 39.75"><defs><style>.cls-1{fill:none;}.cls-2{fill:#797e8d;}</style></defs><title>women</title><g id="Layer_2" data-name="Layer 2"><g id="Layer_2-2" data-name="Layer 2"><rect class="cls-1" x="3.88" y="31.75" width="8" height="8"/><path class="cls-2" d="M11.93,7.42a3.61,3.61,0,0,0-2.37-.83H6.18a3.63,3.63,0,0,0-2.4.86,3.27,3.27,0,0,0-1.24,2L.05,16.1c-.08.12-.06.37.06.73s.32.54.58.54c.81,0,1.28-.21,1.4-.63l2.56-6.9a.23.23,0,0,1,.25-.19.22.22,0,0,1,.26.19V10L1.39,20.63v.83c0,.08.1.23.32.45s.36.32.44.32H4.58v8.24a1.15,1.15,0,0,0,.42.89,1.32,1.32,0,0,0,.92.38,1.27,1.27,0,0,0,.9-.38,1.25,1.25,0,0,0,.38-.89V21.91s.12-.07.35-.1a3.75,3.75,0,0,1,.67,0c.22,0,.32.06.32.1v8.5a1.31,1.31,0,0,0,.39.93,1.23,1.23,0,0,0,.92.41,1.26,1.26,0,0,0,.93-.41,1.34,1.34,0,0,0,.38-.93V22.23h2.49c.13,0,.28-.11.45-.32a1,1,0,0,0,.25-.45v-.83L10.52,10a.16.16,0,0,1-.06-.13.28.28,0,0,1,.24-.32h.08c.12,0,.21.09.25.26l2.62,6.83a1.36,1.36,0,0,0,1.41.7q.38,0,.54-.57a4.05,4.05,0,0,0,.16-.77L13.08,9.46A3,3,0,0,0,11.93,7.42Z"/><path class="cls-2" d="M9.72,4.63a2.6,2.6,0,0,0,.8-1.91A2.6,2.6,0,0,0,9.72.8,2.69,2.69,0,0,0,5.89.8a2.6,2.6,0,0,0-.8,1.92,2.6,2.6,0,0,0,.8,1.91,2.69,2.69,0,0,0,3.83,0Z"/></g></g></svg>